<svg width="599" height="70" viewBox="0 0 599 70" fill="none" xmlns="http://www.w3.org/2000/svg">
<path d="M69.9981 28.5308C70.0001 30.9503 69.6187 33.3598 68.8632 35.6997C68.1251 37.9949 67.0441 40.2076 65.6445 42.2884C64.8616 43.4441 63.9772 44.5524 62.9984 45.6044C62.9602 45.6583 62.9322 45.6884 62.9233 45.7081L62.9144 45.7153C62.1519 46.5342 61.3375 47.3201 60.4743 48.0697C59.25 49.1302 57.9263 50.1113 56.5152 51.0045C56.5152 51.0045 46.3616 56.9434 34.1828 56.9434L32.1841 56.9506L23.6361 56.9962V37.8023H35.0275C36.5276 37.8123 38.0138 37.5673 39.3912 37.0832C40.7491 36.6133 41.9846 35.9366 43.031 35.0894C44.0746 34.2342 44.9034 33.2216 45.4711 32.108C46.0685 30.9789 46.3689 29.7602 46.3527 28.5308C46.3578 27.9074 46.2853 27.2852 46.1365 26.6738C46.1315 26.6667 46.1286 26.659 46.1276 26.651C45.9858 26.0626 45.7657 25.4885 45.4711 24.9391C44.3175 22.6977 42.131 20.9141 39.381 19.9712C38.0074 19.4865 36.5244 19.2418 35.0275 19.253H23.6361C23.6345 14.1474 21.1439 9.25131 16.7117 5.64102C12.2797 2.03072 6.26901 0.00173375 0.000976562 8.55486e-05H35.0275C38.1699 -0.00623992 41.2985 0.338243 44.3261 1.02392C47.2446 1.68714 50.0452 2.65583 52.6578 3.9058C53.5967 4.35658 54.5063 4.8457 55.3892 5.36591L55.463 5.40321C59.4172 7.74077 62.7336 10.7206 65.2031 14.1546C66.7358 16.2863 67.925 18.57 68.7411 20.9494C69.5823 23.418 70.0052 25.9688 69.9981 28.5308Z" fill="url(#paint0_linear)"/>
<path d="M66.2066 69.6192H40.91L36.9229 62.1062L34.1787 56.9404C46.3576 56.9404 56.5111 51.0015 56.5111 51.0015L59.4194 56.5973L59.9283 57.5683C59.9283 57.5756 59.9385 57.5756 59.9385 57.5828L66.2066 69.6192Z" fill="url(#paint1_linear)"/>
<path d="M23.6361 19.2529V69.6158H0.000976562V0C6.26901 0.0016482 12.2797 2.03064 16.7117 5.64094C21.1439 9.25123 23.6345 14.1473 23.6361 19.2529Z" fill="url(#paint2_linear)"/>
<g style="mix-blend-mode:multiply" opacity="0.16">
<g style="mix-blend-mode:multiply" opacity="0.16">
<path d="M23.6361 19.2529C23.6345 14.1473 21.1439 9.25123 16.7117 5.64094C12.2797 2.03064 6.26901 0.0016482 0.000976562 0H21.4034C26.1793 3.63836 30.7682 9.60004 31.903 19.2529H23.6361Z" fill="black"/>
</g>
</g>
<g style="mix-blend-mode:multiply" opacity="0.16">
<g style="mix-blend-mode:multiply" opacity="0.16">
<path d="M32.1847 37.8022V56.9474L23.6367 56.993V37.8022H32.1847Z" fill="black"/>
</g>
</g>
<g style="mix-blend-mode:multiply" opacity="0.16">
<g style="mix-blend-mode:multiply" opacity="0.16">
<path d="M59.4232 56.5963C52.423 59.5846 44.7858 61.4548 36.9229 62.1062L34.1787 56.9404C46.3576 56.9404 56.5111 51.0015 56.5111 51.0015L59.4232 56.5963Z" fill="black"/>
</g>
</g>
<g style="mix-blend-mode:multiply" opacity="0.25">
<g style="mix-blend-mode:multiply" opacity="0.25">
<path d="M69.9994 28.5306C70.0015 30.9501 69.6201 33.3597 68.8646 35.6996C68.1265 37.9947 67.0455 40.2075 65.6459 42.2882C64.863 43.444 63.9787 44.5523 62.9997 45.6043C63.1689 45.3825 63.5811 44.8478 64.1345 44.0302C65.1458 42.5403 66.0147 40.9893 66.7337 39.3908C67.7383 37.1535 68.4281 34.8305 68.7896 32.4664C68.9775 31.1422 69.065 29.8097 69.0516 28.4768C69.0351 27.0999 68.8973 25.7257 68.6394 24.3648C68.3948 23.0038 68.0243 21.6597 67.5313 20.3441C67.055 19.0683 66.4819 17.8179 65.8151 16.6C65.1794 15.4596 64.4649 14.3493 63.6753 13.2746C62.9119 12.258 62.1181 11.3181 61.3382 10.485C60.0701 9.13233 58.6739 7.86248 57.1628 6.68703C56.0662 5.82278 55.3906 5.36475 55.3906 5.36475L55.4644 5.40205C59.4187 7.73961 62.7351 10.7194 65.2045 14.1534C66.7374 16.2851 67.9265 18.5688 68.7425 20.9482C69.5838 23.4173 70.0067 25.9684 69.9994 28.5306Z" fill="black"/>
</g>
</g>
<g style="mix-blend-mode:multiply" opacity="0.25">
<g style="mix-blend-mode:multiply" opacity="0.25">
<path d="M66.2064 69.6188H47.3369C48.9132 69.4282 50.4805 69.3131 52.0568 69.2043C53.6331 69.0955 55.2005 69.0209 56.764 68.9598C58.3276 68.8986 59.9165 68.8686 61.4839 68.8447L64.7484 68.8219C64.4291 68.1805 64.1123 67.538 63.8108 66.8882C63.3133 65.8727 62.8439 64.8561 62.3935 63.824C61.9432 62.7919 61.503 61.7608 61.0793 60.7152C60.6557 59.6696 60.2728 58.6291 59.9344 57.5742L66.2064 69.6188Z" fill="black"/>
</g>
</g>
<g style="mix-blend-mode:screen" opacity="0.7">
<g style="mix-blend-mode:screen" opacity="0.7">
<path d="M0.985652 34.8136C0.976746 36.9898 0.966579 39.166 0.948768 41.3028C0.930957 43.4396 0.891498 45.5515 0.863509 47.5929C0.798627 51.6738 0.694314 55.48 0.563276 58.7432C0.329189 65.2718 0.000976562 69.6189 0.000976562 69.6189V0C0.000976562 0 0.329189 4.35235 0.563276 10.8757C0.690498 14.14 0.798627 17.9452 0.863509 22.027C0.891498 24.0675 0.948768 26.1773 0.948768 28.3172C0.948768 30.4571 0.974202 32.6354 0.985652 34.8136Z" fill="white"/>
</g>
</g>
<g style="mix-blend-mode:multiply" opacity="0.25">
<g style="mix-blend-mode:multiply" opacity="0.25">
<path d="M46.7846 30.0293C46.7491 30.6007 46.636 31.1672 46.4474 31.7184C46.3444 32.0086 46.2121 32.3298 46.0899 32.6044C45.9478 32.9134 45.7821 33.2149 45.5938 33.507C45.2046 34.1271 44.7259 34.707 44.1676 35.2345C43.5899 35.7766 42.9415 36.2658 42.2339 36.6936C41.5103 37.1059 40.7371 37.457 39.9261 37.7412C39.1411 38.0121 38.3187 38.2044 37.4771 38.3143C36.6954 38.4173 35.9017 38.4455 35.112 38.3982C34.3996 38.3682 33.7431 38.3143 33.1235 38.2604C30.6745 38.0697 29.041 37.8024 29.041 37.8024H35.028C36.5281 37.8123 38.0143 37.5674 39.3917 37.0832C40.7497 36.6134 41.9851 35.9367 43.0315 35.0894C44.0751 34.2343 44.904 33.2216 45.4716 32.108C46.0691 30.9789 46.3694 29.7603 46.3533 28.5308C46.3584 27.9074 46.2858 27.2853 46.137 26.6738C46.2871 26.9528 46.4067 27.242 46.4945 27.5381C46.7412 28.3523 46.839 29.1918 46.7846 30.0293Z" fill="black"/>
</g>
</g>
<g style="mix-blend-mode:screen" opacity="0.7">
<g style="mix-blend-mode:screen" opacity="0.7">
<path d="M23.6364 19.2529V69.6158C23.6364 69.6158 23.5524 68.3557 23.4583 66.1536C23.3641 63.9515 23.2038 60.7961 23.1021 57.0209C22.9748 53.2448 22.8769 48.8344 22.8107 44.1121C22.7827 41.7504 22.7547 39.312 22.7268 36.8281C22.6988 34.3442 22.7077 31.8302 22.6988 29.3151C22.6899 26.8001 22.7166 24.2705 22.7357 21.7949C22.7268 20.5638 22.7738 19.3078 22.7268 18.1493C22.6605 16.9964 22.4595 15.8513 22.1263 14.7296C21.4956 12.5898 20.4162 10.5547 18.9356 8.71397C16.439 5.63036 12.9139 3.19115 8.77445 1.68285C7.30465 1.14557 5.76955 0.73571 4.19448 0.460046C3.17502 0.281282 2.14423 0.148436 1.10682 0.0621168C0.384202 0.0237746 0 0.000976562 0 0.000976562C6.26803 0.00262476 12.2787 2.03161 16.7107 5.64192C21.1429 9.25221 23.6335 14.1483 23.6351 19.2539L23.6364 19.2529Z" fill="white"/>
</g>
</g>
<path d="M88.31 26V6.44H93.83C95.33 6.44 96.68 6.63 97.88 7.01C99.08 7.39 100.11 7.98 100.97 8.78C101.83 9.56 102.49 10.56 102.95 11.78C103.41 13 103.64 14.45 103.64 16.13C103.64 17.81 103.41 19.27 102.95 20.51C102.49 21.75 101.84 22.78 101 23.6C100.16 24.4 99.15 25 97.97 25.4C96.81 25.8 95.51 26 94.07 26H88.31ZM92.72 22.43H93.56C94.4 22.43 95.16 22.32 95.84 22.1C96.52 21.88 97.1 21.53 97.58 21.05C98.06 20.55 98.43 19.9 98.69 19.1C98.97 18.3 99.11 17.31 99.11 16.13C99.11 14.97 98.97 14 98.69 13.22C98.43 12.42 98.06 11.79 97.58 11.33C97.1 10.85 96.52 10.51 95.84 10.31C95.16 10.11 94.4 10.01 93.56 10.01H92.72V22.43ZM107.353 26V6.44H119.593V10.16H111.763V14.09H118.423V17.78H111.763V22.28H119.893V26H107.353ZM125.529 26L121.899 6.44H126.429L127.779 15.59C127.899 16.61 128.029 17.64 128.169 18.68C128.309 19.7 128.439 20.73 128.559 21.77H128.679C128.879 20.73 129.069 19.7 129.249 18.68C129.449 17.64 129.649 16.61 129.849 15.59L131.949 6.44H135.699L137.799 15.59C137.999 16.59 138.189 17.61 138.369 18.65C138.569 19.67 138.769 20.71 138.969 21.77H139.089C139.229 20.71 139.359 19.67 139.479 18.65C139.619 17.63 139.759 16.61 139.899 15.59L141.249 6.44H145.479L141.999 26H136.449L134.529 17.12C134.369 16.36 134.219 15.6 134.079 14.84C133.959 14.06 133.849 13.31 133.749 12.59H133.629C133.509 13.31 133.379 14.06 133.239 14.84C133.119 15.6 132.979 16.36 132.819 17.12L130.989 26H125.529ZM152.783 16.1L152.303 17.9H156.473L156.023 16.1C155.743 15.12 155.473 14.08 155.213 12.98C154.953 11.88 154.693 10.82 154.433 9.8H154.313C154.073 10.84 153.823 11.91 153.563 13.01C153.323 14.09 153.063 15.12 152.783 16.1ZM145.703 26L151.823 6.44H157.133L163.253 26H158.573L157.373 21.35H151.403L150.203 26H145.703ZM165.39 26V6.44H169.92L175.02 16.16L176.94 20.48H177.06C176.96 19.44 176.84 18.28 176.7 17C176.58 15.72 176.52 14.5 176.52 13.34V6.44H180.72V26H176.19L171.09 16.25L169.17 11.99H169.05C169.15 13.07 169.26 14.23 169.38 15.47C169.52 16.71 169.59 17.91 169.59 19.07V26H165.39ZM191.347 26V6.44H198.067C199.147 6.44 200.157 6.55 201.097 6.77C202.037 6.97 202.857 7.32 203.557 7.82C204.257 8.3 204.807 8.95 205.207 9.77C205.627 10.57 205.837 11.56 205.837 12.74C205.837 13.88 205.627 14.87 205.207 15.71C204.807 16.55 204.257 17.24 203.557 17.78C202.857 18.32 202.047 18.72 201.127 18.98C200.207 19.24 199.227 19.37 198.187 19.37H195.757V26H191.347ZM195.757 15.86H197.917C200.317 15.86 201.517 14.82 201.517 12.74C201.517 11.72 201.197 11 200.557 10.58C199.917 10.16 198.997 9.95 197.797 9.95H195.757V15.86ZM209.218 26V6.44H221.458V10.16H213.628V14.09H220.288V17.78H213.628V22.28H221.758V26H209.218ZM225.654 26V6.44H232.704C233.744 6.44 234.714 6.54 235.614 6.74C236.534 6.94 237.334 7.28 238.014 7.76C238.694 8.22 239.234 8.84 239.634 9.62C240.034 10.4 240.234 11.37 240.234 12.53C240.234 13.97 239.914 15.16 239.274 16.1C238.654 17.02 237.814 17.71 236.754 18.17L241.194 26H236.244L232.494 18.95H230.064V26H225.654ZM230.064 15.44H232.344C233.504 15.44 234.384 15.2 234.984 14.72C235.604 14.22 235.914 13.49 235.914 12.53C235.914 11.57 235.604 10.9 234.984 10.52C234.384 10.14 233.504 9.95 232.344 9.95H230.064V15.44ZM245.792 26L242.162 6.44H246.692L248.042 15.59C248.162 16.61 248.292 17.64 248.432 18.68C248.572 19.7 248.702 20.73 248.822 21.77H248.942C249.142 20.73 249.332 19.7 249.512 18.68C249.712 17.64 249.912 16.61 250.112 15.59L252.212 6.44H255.962L258.062 15.59C258.262 16.59 258.452 17.61 258.632 18.65C258.832 19.67 259.032 20.71 259.232 21.77H259.352C259.492 20.71 259.622 19.67 259.742 18.65C259.882 17.63 260.022 16.61 260.162 15.59L261.512 6.44H265.742L262.262 26H256.712L254.792 17.12C254.632 16.36 254.482 15.6 254.342 14.84C254.222 14.06 254.112 13.31 254.012 12.59H253.892C253.772 13.31 253.642 14.06 253.502 14.84C253.382 15.6 253.242 16.36 253.082 17.12L251.252 26H245.792ZM273.046 16.1L272.566 17.9H276.736L276.286 16.1C276.006 15.12 275.736 14.08 275.476 12.98C275.216 11.88 274.956 10.82 274.696 9.8H274.576C274.336 10.84 274.086 11.91 273.826 13.01C273.586 14.09 273.326 15.12 273.046 16.1ZM265.966 26L272.086 6.44H277.396L283.516 26H278.836L277.636 21.35H271.666L270.466 26H265.966ZM285.654 26V6.44H290.064V14.45H290.184L296.004 6.44H300.864L294.954 14.24L301.944 26H297.114L292.344 17.75L290.064 20.75V26H285.654ZM304.081 26V6.44H308.491V26H304.081ZM313.105 26V6.44H317.515V22.28H325.255V26H313.105ZM333.046 16.1L332.566 17.9H336.736L336.286 16.1C336.006 15.12 335.736 14.08 335.476 12.98C335.216 11.88 334.956 10.82 334.696 9.8H334.576C334.336 10.84 334.086 11.91 333.826 13.01C333.586 14.09 333.326 15.12 333.046 16.1ZM325.966 26L332.086 6.44H337.396L343.516 26H338.836L337.636 21.35H331.666L330.466 26H325.966ZM345.654 26V6.44H350.184L355.284 16.16L357.204 20.48H357.324C357.224 19.44 357.104 18.28 356.964 17C356.844 15.72 356.784 14.5 356.784 13.34V6.44H360.984V26H356.454L351.354 16.25L349.434 11.99H349.314C349.414 13.07 349.524 14.23 349.644 15.47C349.784 16.71 349.854 17.91 349.854 19.07V26H345.654ZM371.611 26V6.44H378.661C379.701 6.44 380.671 6.54 381.571 6.74C382.491 6.94 383.291 7.28 383.971 7.76C384.651 8.22 385.191 8.84 385.591 9.62C385.991 10.4 386.191 11.37 386.191 12.53C386.191 13.97 385.871 15.16 385.231 16.1C384.611 17.02 383.771 17.71 382.711 18.17L387.151 26H382.201L378.451 18.95H376.021V26H371.611ZM376.021 15.44H378.301C379.461 15.44 380.341 15.2 380.941 14.72C381.561 14.22 381.871 13.49 381.871 12.53C381.871 11.57 381.561 10.9 380.941 10.52C380.341 10.14 379.461 9.95 378.301 9.95H376.021V15.44ZM394.365 16.1L393.885 17.9H398.055L397.605 16.1C397.325 15.12 397.055 14.08 396.795 12.98C396.535 11.88 396.275 10.82 396.015 9.8H395.895C395.655 10.84 395.405 11.91 395.145 13.01C394.905 14.09 394.645 15.12 394.365 16.1ZM387.285 26L393.405 6.44H398.715L404.835 26H400.155L398.955 21.35H392.985L391.785 26H387.285ZM406.972 26V6.44H411.382V14.45H411.502L417.322 6.44H422.182L416.272 14.24L423.262 26H418.432L413.662 17.75L411.382 20.75V26H406.972ZM427.969 26V19.04L422.059 6.44H426.799L428.539 10.94C428.819 11.68 429.079 12.4 429.319 13.1C429.579 13.78 429.849 14.5 430.129 15.26H430.249C430.529 14.5 430.799 13.78 431.059 13.1C431.339 12.4 431.619 11.68 431.899 10.94L433.669 6.44H438.289L432.379 19.04V26H427.969ZM444.433 16.1L443.953 17.9H448.123L447.673 16.1C447.393 15.12 447.123 14.08 446.863 12.98C446.603 11.88 446.343 10.82 446.083 9.8H445.963C445.723 10.84 445.473 11.91 445.213 13.01C444.973 14.09 444.713 15.12 444.433 16.1ZM437.353 26L443.473 6.44H448.783L454.903 26H450.223L449.023 21.35H443.053L441.853 26H437.353ZM458.653 26V10.16H453.283V6.44H468.463V10.16H463.093V26H458.653ZM477.519 26V6.44H483.039C484.539 6.44 485.889 6.63 487.089 7.01C488.289 7.39 489.319 7.98 490.179 8.78C491.039 9.56 491.699 10.56 492.159 11.78C492.619 13 492.849 14.45 492.849 16.13C492.849 17.81 492.619 19.27 492.159 20.51C491.699 21.75 491.049 22.78 490.209 23.6C489.369 24.4 488.359 25 487.179 25.4C486.019 25.8 484.719 26 483.279 26H477.519ZM481.929 22.43H482.769C483.609 22.43 484.369 22.32 485.049 22.1C485.729 21.88 486.309 21.53 486.789 21.05C487.269 20.55 487.639 19.9 487.899 19.1C488.179 18.3 488.319 17.31 488.319 16.13C488.319 14.97 488.179 14 487.899 13.22C487.639 12.42 487.269 11.79 486.789 11.33C486.309 10.85 485.729 10.51 485.049 10.31C484.369 10.11 483.609 10.01 482.769 10.01H481.929V22.43ZM500.859 16.1L500.379 17.9H504.549L504.099 16.1C503.819 15.12 503.549 14.08 503.289 12.98C503.029 11.88 502.769 10.82 502.509 9.8H502.389C502.149 10.84 501.899 11.91 501.639 13.01C501.399 14.09 501.139 15.12 500.859 16.1ZM493.779 26L499.899 6.44H505.209L511.329 26H506.649L505.449 21.35H499.479L498.279 26H493.779ZM513.466 26V6.44H525.706V10.16H517.876V14.09H524.536V17.78H517.876V22.28H526.006V26H513.466ZM529.902 26V6.44H536.952C537.992 6.44 538.962 6.54 539.862 6.74C540.782 6.94 541.582 7.28 542.262 7.76C542.942 8.22 543.482 8.84 543.882 9.62C544.282 10.4 544.482 11.37 544.482 12.53C544.482 13.97 544.162 15.16 543.522 16.1C542.902 17.02 542.062 17.71 541.002 18.17L545.442 26H540.492L536.742 18.95H534.312V26H529.902ZM534.312 15.44H536.592C537.752 15.44 538.632 15.2 539.232 14.72C539.852 14.22 540.162 13.49 540.162 12.53C540.162 11.57 539.852 10.9 539.232 10.52C538.632 10.14 537.752 9.95 536.592 9.95H534.312V15.44ZM552.656 16.1L552.176 17.9H556.346L555.896 16.1C555.616 15.12 555.346 14.08 555.086 12.98C554.826 11.88 554.566 10.82 554.306 9.8H554.186C553.946 10.84 553.696 11.91 553.436 13.01C553.196 14.09 552.936 15.12 552.656 16.1ZM545.576 26L551.696 6.44H557.006L563.126 26H558.446L557.246 21.35H551.276L550.076 26H545.576ZM565.263 26V6.44H569.673V13.97H576.423V6.44H580.863V26H576.423V17.84H569.673V26H565.263ZM88.7 64V44.32H94.31C95.41 44.32 96.41 44.42 97.31 44.62C98.23 44.82 99.01 45.15 99.65 45.61C100.29 46.05 100.79 46.64 101.15 47.38C101.51 48.12 101.69 49.03 101.69 50.11C101.69 51.15 101.51 52.05 101.15 52.81C100.81 53.57 100.32 54.2 99.68 54.7C99.04 55.2 98.27 55.58 97.37 55.84C96.49 56.08 95.51 56.2 94.43 56.2H91.19V64H88.7ZM91.19 54.16H94.13C95.85 54.16 97.12 53.84 97.94 53.2C98.78 52.54 99.2 51.51 99.2 50.11C99.2 48.69 98.76 47.71 97.88 47.17C97.02 46.61 95.73 46.33 94.01 46.33H91.19V54.16ZM105.692 64V44.32H111.842C112.842 44.32 113.762 44.42 114.602 44.62C115.462 44.8 116.192 45.11 116.792 45.55C117.412 45.99 117.892 46.56 118.232 47.26C118.572 47.96 118.742 48.82 118.742 49.84C118.742 51.38 118.342 52.61 117.542 53.53C116.742 54.45 115.662 55.08 114.302 55.42L119.312 64H116.492L111.752 55.69H108.182V64H105.692ZM108.182 53.65H111.482C113.022 53.65 114.202 53.34 115.022 52.72C115.842 52.08 116.252 51.12 116.252 49.84C116.252 48.54 115.842 47.63 115.022 47.11C114.202 46.59 113.022 46.33 111.482 46.33H108.182V53.65ZM130.032 64.36C128.792 64.36 127.652 64.12 126.612 63.64C125.592 63.16 124.712 62.48 123.972 61.6C123.232 60.7 122.652 59.62 122.232 58.36C121.832 57.08 121.632 55.65 121.632 54.07C121.632 52.49 121.832 51.08 122.232 49.84C122.652 48.58 123.232 47.52 123.972 46.66C124.712 45.78 125.592 45.11 126.612 44.65C127.652 44.19 128.792 43.96 130.032 43.96C131.272 43.96 132.402 44.2 133.422 44.68C134.462 45.14 135.352 45.81 136.092 46.69C136.852 47.55 137.432 48.61 137.832 49.87C138.252 51.11 138.462 52.51 138.462 54.07C138.462 55.65 138.252 57.08 137.832 58.36C137.432 59.62 136.852 60.7 136.092 61.6C135.352 62.48 134.462 63.16 133.422 63.64C132.402 64.12 131.272 64.36 130.032 64.36ZM130.032 62.17C130.912 62.17 131.702 61.98 132.402 61.6C133.122 61.22 133.732 60.68 134.232 59.98C134.752 59.26 135.152 58.41 135.432 57.43C135.712 56.43 135.852 55.31 135.852 54.07C135.852 52.85 135.712 51.75 135.432 50.77C135.152 49.79 134.752 48.96 134.232 48.28C133.732 47.6 133.122 47.08 132.402 46.72C131.702 46.34 130.912 46.15 130.032 46.15C129.152 46.15 128.352 46.34 127.632 46.72C126.932 47.08 126.322 47.6 125.802 48.28C125.302 48.96 124.912 49.79 124.632 50.77C124.352 51.75 124.212 52.85 124.212 54.07C124.212 55.31 124.352 56.43 124.632 57.43C124.912 58.41 125.302 59.26 125.802 59.98C126.322 60.68 126.932 61.22 127.632 61.6C128.352 61.98 129.152 62.17 130.032 62.17ZM146.001 64L139.701 44.32H142.371L145.521 54.94C145.881 56.12 146.191 57.21 146.451 58.21C146.731 59.21 147.061 60.29 147.441 61.45H147.561C147.921 60.29 148.241 59.21 148.521 58.21C148.801 57.21 149.111 56.12 149.451 54.94L152.601 44.32H155.151L148.911 64H146.001ZM157.841 64V44.32H160.331V64H157.841ZM165.721 64V44.32H168.301L175.411 56.68L177.541 60.76H177.661C177.601 59.76 177.531 58.73 177.451 57.67C177.391 56.59 177.361 55.53 177.361 54.49V44.32H179.731V64H177.151L170.011 51.61L167.881 47.56H167.761C167.841 48.56 167.911 49.58 167.971 50.62C168.051 51.64 168.091 52.67 168.091 53.71V64H165.721ZM190.605 64.36C189.225 64.36 187.945 64.1 186.765 63.58C185.585 63.06 184.565 62.35 183.705 61.45L185.205 59.71C185.905 60.45 186.725 61.05 187.665 61.51C188.625 61.95 189.615 62.17 190.635 62.17C191.935 62.17 192.945 61.88 193.665 61.3C194.385 60.7 194.745 59.92 194.745 58.96C194.745 58.46 194.655 58.04 194.475 57.7C194.315 57.34 194.085 57.04 193.785 56.8C193.505 56.54 193.165 56.31 192.765 56.11C192.365 55.91 191.935 55.7 191.475 55.48L188.655 54.25C188.195 54.05 187.725 53.81 187.245 53.53C186.765 53.25 186.335 52.91 185.955 52.51C185.575 52.11 185.265 51.64 185.025 51.1C184.785 50.54 184.665 49.9 184.665 49.18C184.665 48.44 184.815 47.75 185.115 47.11C185.435 46.47 185.865 45.92 186.405 45.46C186.965 44.98 187.615 44.61 188.355 44.35C189.115 44.09 189.945 43.96 190.845 43.96C192.025 43.96 193.115 44.19 194.115 44.65C195.115 45.09 195.965 45.67 196.665 46.39L195.315 48.01C194.715 47.43 194.045 46.98 193.305 46.66C192.585 46.32 191.765 46.15 190.845 46.15C189.745 46.15 188.855 46.41 188.175 46.93C187.515 47.43 187.185 48.13 187.185 49.03C187.185 49.51 187.275 49.92 187.455 50.26C187.655 50.58 187.915 50.87 188.235 51.13C188.555 51.37 188.905 51.59 189.285 51.79C189.665 51.97 190.055 52.14 190.455 52.3L193.245 53.5C193.805 53.74 194.335 54.02 194.835 54.34C195.335 54.64 195.765 55 196.125 55.42C196.485 55.82 196.765 56.3 196.965 56.86C197.185 57.4 197.295 58.03 197.295 58.75C197.295 59.53 197.135 60.26 196.815 60.94C196.515 61.62 196.075 62.22 195.495 62.74C194.915 63.24 194.215 63.64 193.395 63.94C192.575 64.22 191.645 64.36 190.605 64.36ZM201.171 64V44.32H203.661V64H201.171ZM215.057 64V44.32H217.547V54.19H217.637L225.827 44.32H228.647L222.497 51.82L229.607 64H226.817L220.937 53.77L217.547 57.76V64H215.057ZM235.528 52.99L234.598 55.99H240.508L239.578 52.99C239.218 51.89 238.878 50.8 238.558 49.72C238.238 48.62 237.918 47.5 237.598 46.36H237.478C237.178 47.5 236.868 48.62 236.548 49.72C236.228 50.8 235.888 51.89 235.528 52.99ZM229.528 64L236.188 44.32H239.008L245.668 64H242.998L241.138 58H233.968L232.078 64H229.528ZM248.456 64V44.32H250.946V61.87H259.556V64H248.456ZM263.046 64V44.32H265.536V64H263.046ZM270.927 64V44.32H273.927L277.707 54.82C277.947 55.5 278.177 56.19 278.397 56.89C278.637 57.57 278.877 58.25 279.117 58.93H279.237C279.477 58.25 279.697 57.57 279.897 56.89C280.117 56.19 280.347 55.5 280.587 54.82L284.307 44.32H287.337V64H284.997V53.17C284.997 52.29 285.037 51.32 285.117 50.26C285.197 49.2 285.267 48.23 285.327 47.35H285.207L283.647 51.82L279.927 62.02H278.277L274.557 51.82L272.997 47.35H272.877C272.937 48.23 272.997 49.2 273.057 50.26C273.137 51.32 273.177 52.29 273.177 53.17V64H270.927ZM296.113 52.99L295.183 55.99H301.093L300.163 52.99C299.803 51.89 299.463 50.8 299.143 49.72C298.823 48.62 298.503 47.5 298.183 46.36H298.063C297.763 47.5 297.453 48.62 297.133 49.72C296.813 50.8 296.473 51.89 296.113 52.99ZM290.113 64L296.773 44.32H299.593L306.253 64H303.583L301.723 58H294.553L292.663 64H290.113ZM309.042 64V44.32H311.622L318.732 56.68L320.862 60.76H320.982C320.922 59.76 320.852 58.73 320.772 57.67C320.712 56.59 320.682 55.53 320.682 54.49V44.32H323.052V64H320.472L313.332 51.61L311.202 47.56H311.082C311.162 48.56 311.232 49.58 311.292 50.62C311.372 51.64 311.412 52.67 311.412 53.71V64H309.042ZM332.546 64V46.42H326.606V44.32H341.006V46.42H335.066V64H332.546ZM346.738 52.99L345.808 55.99H351.718L350.788 52.99C350.428 51.89 350.088 50.8 349.768 49.72C349.448 48.62 349.128 47.5 348.808 46.36H348.688C348.388 47.5 348.078 48.62 347.758 49.72C347.438 50.8 347.098 51.89 346.738 52.99ZM340.738 64L347.398 44.32H350.218L356.878 64H354.208L352.348 58H345.178L343.288 64H340.738ZM359.667 64V44.32H362.247L369.357 56.68L371.487 60.76H371.607C371.547 59.76 371.477 58.73 371.397 57.67C371.337 56.59 371.307 55.53 371.307 54.49V44.32H373.677V64H371.097L363.957 51.61L361.827 47.56H361.707C361.787 48.56 361.857 49.58 361.917 50.62C361.997 51.64 362.037 52.67 362.037 53.71V64H359.667Z" fill="black"/>
<defs>
<linearGradient id="paint0_linear" x1="68.9482" y1="28.498" x2="9.4506" y2="28.498" gradientUnits="userSpaceOnUse">
<stop stop-color="#C33764"/>
<stop offset="1" stop-color="#1D2671"/>
</linearGradient>
<linearGradient id="paint1_linear" x1="46.7657" y1="55.3021" x2="48.9053" y2="70.025" gradientUnits="userSpaceOnUse">
<stop stop-color="#08ADF8"/>
<stop offset="1" stop-color="#4700FC"/>
</linearGradient>
<linearGradient id="paint2_linear" x1="11.8185" y1="2.22771" x2="11.8185" y2="69.7551" gradientUnits="userSpaceOnUse">
<stop stop-color="#FC7300"/>
<stop offset="1" stop-color="#F8007A"/>
</linearGradient>
</defs>
</svg>
