<svg width="70" height="70" viewBox="0 0 70 70" fill="none" xmlns="http://www.w3.org/2000/svg">
<path d="M69.9981 28.5308C70.0001 30.9503 69.6187 33.3598 68.8632 35.6997C68.1251 37.9949 67.0441 40.2076 65.6445 42.2884C64.8616 43.4441 63.9772 44.5524 62.9984 45.6044C62.9602 45.6583 62.9322 45.6884 62.9233 45.7081L62.9144 45.7153C62.1519 46.5342 61.3375 47.3201 60.4743 48.0697C59.25 49.1302 57.9263 50.1113 56.5152 51.0045C56.5152 51.0045 46.3616 56.9434 34.1828 56.9434L32.1841 56.9506L23.6361 56.9962V37.8023H35.0275C36.5276 37.8123 38.0138 37.5673 39.3912 37.0832C40.7491 36.6133 41.9846 35.9366 43.031 35.0894C44.0746 34.2342 44.9034 33.2216 45.4711 32.108C46.0685 30.9789 46.3689 29.7602 46.3527 28.5308C46.3578 27.9074 46.2853 27.2852 46.1365 26.6738C46.1315 26.6667 46.1286 26.659 46.1276 26.651C45.9858 26.0626 45.7657 25.4885 45.4711 24.9391C44.3175 22.6977 42.131 20.9141 39.381 19.9712C38.0074 19.4865 36.5244 19.2418 35.0275 19.253H23.6361C23.6345 14.1474 21.1439 9.25131 16.7117 5.64102C12.2797 2.03072 6.26901 0.00173375 0.000976562 8.55486e-05H35.0275C38.1699 -0.00623992 41.2985 0.338243 44.3261 1.02392C47.2446 1.68714 50.0452 2.65583 52.6578 3.9058C53.5967 4.35658 54.5063 4.8457 55.3892 5.36591L55.463 5.40321C59.4172 7.74077 62.7336 10.7206 65.2031 14.1546C66.7358 16.2863 67.925 18.57 68.7411 20.9494C69.5823 23.418 70.0052 25.9688 69.9981 28.5308Z" fill="url(#paint0_linear)"/>
<path d="M66.2066 69.6192H40.91L36.9229 62.1062L34.1787 56.9404C46.3576 56.9404 56.5111 51.0015 56.5111 51.0015L59.4194 56.5973L59.9283 57.5683C59.9283 57.5756 59.9385 57.5756 59.9385 57.5828L66.2066 69.6192Z" fill="url(#paint1_linear)"/>
<path d="M23.6361 19.2529V69.6158H0.000976562V0C6.26901 0.0016482 12.2797 2.03064 16.7117 5.64094C21.1439 9.25123 23.6345 14.1473 23.6361 19.2529Z" fill="url(#paint2_linear)"/>
<g style="mix-blend-mode:multiply" opacity="0.16">
<g style="mix-blend-mode:multiply" opacity="0.16">
<path d="M23.6361 19.2529C23.6345 14.1473 21.1439 9.25123 16.7117 5.64094C12.2797 2.03064 6.26901 0.0016482 0.000976562 0H21.4034C26.1793 3.63836 30.7682 9.60004 31.903 19.2529H23.6361Z" fill="black"/>
</g>
</g>
<g style="mix-blend-mode:multiply" opacity="0.16">
<g style="mix-blend-mode:multiply" opacity="0.16">
<path d="M32.1847 37.8022V56.9474L23.6367 56.993V37.8022H32.1847Z" fill="black"/>
</g>
</g>
<g style="mix-blend-mode:multiply" opacity="0.16">
<g style="mix-blend-mode:multiply" opacity="0.16">
<path d="M59.4232 56.5963C52.423 59.5846 44.7858 61.4548 36.9229 62.1062L34.1787 56.9404C46.3576 56.9404 56.5111 51.0015 56.5111 51.0015L59.4232 56.5963Z" fill="black"/>
</g>
</g>
<g style="mix-blend-mode:multiply" opacity="0.25">
<g style="mix-blend-mode:multiply" opacity="0.25">
<path d="M69.9994 28.5306C70.0015 30.9501 69.6201 33.3597 68.8646 35.6996C68.1265 37.9947 67.0455 40.2075 65.6459 42.2882C64.863 43.444 63.9787 44.5523 62.9997 45.6043C63.1689 45.3825 63.5811 44.8478 64.1345 44.0302C65.1458 42.5403 66.0147 40.9893 66.7337 39.3908C67.7383 37.1535 68.4281 34.8305 68.7896 32.4664C68.9775 31.1422 69.065 29.8097 69.0516 28.4768C69.0351 27.0999 68.8973 25.7257 68.6394 24.3648C68.3948 23.0038 68.0243 21.6597 67.5313 20.3441C67.055 19.0683 66.4819 17.8179 65.8151 16.6C65.1794 15.4596 64.4649 14.3493 63.6753 13.2746C62.9119 12.258 62.1181 11.3181 61.3382 10.485C60.0701 9.13233 58.6739 7.86248 57.1628 6.68703C56.0662 5.82278 55.3906 5.36475 55.3906 5.36475L55.4644 5.40205C59.4187 7.73961 62.7351 10.7194 65.2045 14.1534C66.7374 16.2851 67.9265 18.5688 68.7425 20.9482C69.5838 23.4173 70.0067 25.9684 69.9994 28.5306Z" fill="black"/>
</g>
</g>
<g style="mix-blend-mode:multiply" opacity="0.25">
<g style="mix-blend-mode:multiply" opacity="0.25">
<path d="M66.2064 69.6188H47.3369C48.9132 69.4282 50.4805 69.3131 52.0568 69.2043C53.6331 69.0955 55.2005 69.0209 56.764 68.9598C58.3276 68.8986 59.9165 68.8686 61.4839 68.8447L64.7484 68.8219C64.4291 68.1805 64.1123 67.538 63.8108 66.8882C63.3133 65.8727 62.8439 64.8561 62.3935 63.824C61.9432 62.7919 61.503 61.7608 61.0793 60.7152C60.6557 59.6696 60.2728 58.6291 59.9344 57.5742L66.2064 69.6188Z" fill="black"/>
</g>
</g>
<g style="mix-blend-mode:screen" opacity="0.7">
<g style="mix-blend-mode:screen" opacity="0.7">
<path d="M0.985652 34.8136C0.976746 36.9898 0.966579 39.166 0.948768 41.3028C0.930957 43.4396 0.891498 45.5515 0.863509 47.5929C0.798627 51.6738 0.694314 55.48 0.563276 58.7432C0.329189 65.2718 0.000976562 69.6189 0.000976562 69.6189V0C0.000976562 0 0.329189 4.35235 0.563276 10.8757C0.690498 14.14 0.798627 17.9452 0.863509 22.027C0.891498 24.0675 0.948768 26.1773 0.948768 28.3172C0.948768 30.4571 0.974202 32.6354 0.985652 34.8136Z" fill="white"/>
</g>
</g>
<g style="mix-blend-mode:multiply" opacity="0.25">
<g style="mix-blend-mode:multiply" opacity="0.25">
<path d="M46.7846 30.0293C46.7491 30.6007 46.636 31.1672 46.4474 31.7184C46.3444 32.0086 46.2121 32.3298 46.0899 32.6044C45.9478 32.9134 45.7821 33.2149 45.5938 33.507C45.2046 34.1271 44.7259 34.707 44.1676 35.2345C43.5899 35.7766 42.9415 36.2658 42.2339 36.6936C41.5103 37.1059 40.7371 37.457 39.9261 37.7412C39.1411 38.0121 38.3187 38.2044 37.4771 38.3143C36.6954 38.4173 35.9017 38.4455 35.112 38.3982C34.3996 38.3682 33.7431 38.3143 33.1235 38.2604C30.6745 38.0697 29.041 37.8024 29.041 37.8024H35.028C36.5281 37.8123 38.0143 37.5674 39.3917 37.0832C40.7497 36.6134 41.9851 35.9367 43.0315 35.0894C44.0751 34.2343 44.904 33.2216 45.4716 32.108C46.0691 30.9789 46.3694 29.7603 46.3533 28.5308C46.3584 27.9074 46.2858 27.2853 46.137 26.6738C46.2871 26.9528 46.4067 27.242 46.4945 27.5381C46.7412 28.3523 46.839 29.1918 46.7846 30.0293Z" fill="black"/>
</g>
</g>
<g style="mix-blend-mode:screen" opacity="0.7">
<g style="mix-blend-mode:screen" opacity="0.7">
<path d="M23.6364 19.2529V69.6158C23.6364 69.6158 23.5524 68.3557 23.4583 66.1536C23.3641 63.9515 23.2038 60.7961 23.1021 57.0209C22.9748 53.2448 22.8769 48.8344 22.8107 44.1121C22.7827 41.7504 22.7547 39.312 22.7268 36.8281C22.6988 34.3442 22.7077 31.8302 22.6988 29.3151C22.6899 26.8001 22.7166 24.2705 22.7357 21.7949C22.7268 20.5638 22.7738 19.3078 22.7268 18.1493C22.6605 16.9964 22.4595 15.8513 22.1263 14.7296C21.4956 12.5898 20.4162 10.5547 18.9356 8.71397C16.439 5.63036 12.9139 3.19115 8.77445 1.68285C7.30465 1.14557 5.76955 0.73571 4.19448 0.460046C3.17502 0.281282 2.14423 0.148436 1.10682 0.0621168C0.384202 0.0237746 0 0.000976562 0 0.000976562C6.26803 0.00262476 12.2787 2.03161 16.7107 5.64192C21.1429 9.25221 23.6335 14.1483 23.6351 19.2539L23.6364 19.2529Z" fill="white"/>
</g>
</g>
<defs>
<linearGradient id="paint0_linear" x1="68.9482" y1="28.498" x2="9.4506" y2="28.498" gradientUnits="userSpaceOnUse">
<stop stop-color="#C33764"/>
<stop offset="1" stop-color="#1D2671"/>
</linearGradient>
<linearGradient id="paint1_linear" x1="46.7657" y1="55.3021" x2="48.9053" y2="70.025" gradientUnits="userSpaceOnUse">
<stop stop-color="#08ADF8"/>
<stop offset="1" stop-color="#4700FC"/>
</linearGradient>
<linearGradient id="paint2_linear" x1="11.8185" y1="2.22771" x2="11.8185" y2="69.7551" gradientUnits="userSpaceOnUse">
<stop stop-color="#FC7300"/>
<stop offset="1" stop-color="#F8007A"/>
</linearGradient>
</defs>
</svg>
